<svg width="20" height="28" viewBox="0 0 20 28" fill="none" xmlns="http://www.w3.org/2000/svg">
<path d="M20 9.8C20 8.51305 19.7413 7.23869 19.2388 6.0497C18.7362 4.86071 17.9997 3.78037 17.0711 2.87035C16.1425 1.96034 15.0401 1.23848 13.8268 0.745981C12.6136 0.253484 11.3132 0 10 0C8.68678 0 7.38642 0.253484 6.17317 0.745981C4.95991 1.23848 3.85752 1.96034 2.92893 2.87035C2.00035 3.78037 1.26375 4.86071 0.761204 6.0497C0.258657 7.23869 -1.95685e-08 8.51305 0 9.8C0 11.7418 0.585714 13.5478 1.57857 15.071H1.56714C4.93857 20.244 10 28 10 28L18.4329 15.071H18.4229C19.452 13.4979 19.9994 11.6686 20 9.8ZM10 14C8.86336 14 7.77327 13.5575 6.96954 12.7698C6.16581 11.9822 5.71429 10.9139 5.71429 9.8C5.71429 8.68609 6.16581 7.6178 6.96954 6.83015C7.77327 6.0425 8.86336 5.6 10 5.6C11.1366 5.6 12.2267 6.0425 13.0305 6.83015C13.8342 7.6178 14.2857 8.68609 14.2857 9.8C14.2857 10.9139 13.8342 11.9822 13.0305 12.7698C12.2267 13.5575 11.1366 14 10 14Z" fill="#DD71C6"/>
</svg>
